<?xml version="1.0" encoding="UTF-8" standalone="no"?>
<!-- Created with Inkscape (http://www.inkscape.org/) -->

<svg
   width="24.999998"
   height="24.999998"
   viewBox="0 0 24.999998 24.999998"
   version="1.1"
   id="svg1"
   inkscape:version="1.3.2 (091e20e, 2023-11-25, custom)"
   sodipodi:docname="delete_red_25.svg"
   inkscape:export-filename="bg_blue_25.png"
   inkscape:export-xdpi="96"
   inkscape:export-ydpi="96"
   xmlns:inkscape="http://www.inkscape.org/namespaces/inkscape"
   xmlns:sodipodi="http://sodipodi.sourceforge.net/DTD/sodipodi-0.dtd"
   xmlns="http://www.w3.org/2000/svg"
   xmlns:svg="http://www.w3.org/2000/svg">
  <sodipodi:namedview
     id="namedview1"
     pagecolor="#ffffff"
     bordercolor="#000000"
     borderopacity="0.25"
     inkscape:showpageshadow="2"
     inkscape:pageopacity="0.0"
     inkscape:pagecheckerboard="0"
     inkscape:deskcolor="#d1d1d1"
     inkscape:document-units="px"
     inkscape:zoom="3.9128259"
     inkscape:cx="-9.839436"
     inkscape:cy="-0.38335465"
     inkscape:window-width="1920"
     inkscape:window-height="1057"
     inkscape:window-x="3632"
     inkscape:window-y="194"
     inkscape:window-maximized="1"
     inkscape:current-layer="layer1"
     showgrid="false" />
  <defs
     id="defs1" />
  <g
     inkscape:label="Layer 1"
     inkscape:groupmode="layer"
     id="layer1">
    <rect
       style="fill:#ff5454;fill-opacity:1;stroke:#ff5454;stroke-width:8.18824;stroke-linejoin:round;stroke-dasharray:none;stroke-opacity:1;paint-order:fill markers stroke"
       id="rect1"
       width="16.811758"
       height="16.811758"
       x="4.09412"
       y="4.09412" />
    <path
       d="M 10.121429,5.5185547 C 10.266071,5.1992188 10.563393,5 10.8875,5 h 3.225 c 0.324107,0 0.621429,0.1992188 0.766071,0.5185547 L 15.071429,5.9375 h 2.571428 C 18.116964,5.9375 18.5,6.3564452 18.5,6.8750001 18.5,7.3935548 18.116964,7.8125 17.642857,7.8125 H 7.357143 C 6.883036,7.8125 6.5,7.3935548 6.5,6.8750001 6.5,6.3564452 6.883036,5.9375 7.357143,5.9375 H 9.928571 Z M 7.357143,8.7500001 H 17.642857 V 18.125 c 0,1.03418 -0.76875,1.875 -1.714286,1.875 H 9.071429 C 8.125893,20 7.357143,19.15918 7.357143,18.125 Z M 9.928571,10.625 C 9.692857,10.625 9.5,10.835938 9.5,11.09375 v 6.5625 c 0,0.257813 0.192857,0.46875 0.428571,0.46875 0.235715,0 0.428572,-0.210937 0.428572,-0.46875 v -6.5625 c 0,-0.257812 -0.192857,-0.46875 -0.428572,-0.46875 z m 2.571429,0 c -0.235714,0 -0.428571,0.210938 -0.428571,0.46875 v 6.5625 c 0,0.257813 0.192857,0.46875 0.428571,0.46875 0.235714,0 0.428571,-0.210937 0.428571,-0.46875 v -6.5625 C 12.928571,10.835938 12.735714,10.625 12.5,10.625 Z m 2.571429,0 c -0.235715,0 -0.428572,0.210938 -0.428572,0.46875 v 6.5625 c 0,0.257813 0.192857,0.46875 0.428572,0.46875 0.235714,0 0.428571,-0.210937 0.428571,-0.46875 v -6.5625 C 15.5,10.835938 15.307143,10.625 15.071429,10.625 Z"
       id="path1"
       style="fill:#ffffff;fill-opacity:1;stroke-width:0.0280132" />
  </g>
</svg>
