<?xml version="1.0" encoding="UTF-8" standalone="no"?>
<!-- Created with Inkscape (http://www.inkscape.org/) -->

<svg
   width="24.999998"
   height="24.999998"
   viewBox="0 0 24.999998 24.999998"
   version="1.1"
   id="svg1"
   inkscape:version="1.3.2 (091e20e, 2023-11-25, custom)"
   sodipodi:docname="plus_blue_25.svg"
   inkscape:export-filename="bg_blue_25.png"
   inkscape:export-xdpi="96"
   inkscape:export-ydpi="96"
   xmlns:inkscape="http://www.inkscape.org/namespaces/inkscape"
   xmlns:sodipodi="http://sodipodi.sourceforge.net/DTD/sodipodi-0.dtd"
   xmlns="http://www.w3.org/2000/svg"
   xmlns:svg="http://www.w3.org/2000/svg">
  <sodipodi:namedview
     id="namedview1"
     pagecolor="#ffffff"
     bordercolor="#000000"
     borderopacity="0.25"
     inkscape:showpageshadow="2"
     inkscape:pageopacity="0.0"
     inkscape:pagecheckerboard="0"
     inkscape:deskcolor="#d1d1d1"
     inkscape:document-units="px"
     inkscape:zoom="3.9128259"
     inkscape:cx="-9.7116512"
     inkscape:cy="-41.274517"
     inkscape:window-width="2560"
     inkscape:window-height="1417"
     inkscape:window-x="1072"
     inkscape:window-y="194"
     inkscape:window-maximized="1"
     inkscape:current-layer="layer1" />
  <defs
     id="defs1" />
  <g
     inkscape:label="Layer 1"
     inkscape:groupmode="layer"
     id="layer1">
    <rect
       style="fill:#20a8d8;fill-opacity:1;stroke:#20a8d8;stroke-width:8.18824;stroke-linejoin:round;stroke-dasharray:none;stroke-opacity:1;paint-order:fill markers stroke"
       id="rect1"
       width="16.811758"
       height="16.811758"
       x="4.09412"
       y="4.09412" />
    <path
       d="M 13.423077,7.423077 C 13.423077,6.9125 13.010581,6.5 12.5,6.5 c -0.510581,0 -0.923078,0.4125 -0.923078,0.923077 v 4.153846 H 7.423077 C 6.9125,11.576923 6.5,11.989423 6.5,12.5 c 0,0.510577 0.4125,0.923077 0.923077,0.923077 h 4.153845 v 4.153846 C 11.576922,18.0875 11.989419,18.5 12.5,18.5 c 0.510581,0 0.923077,-0.4125 0.923077,-0.923077 v -4.153846 h 4.153846 C 18.0875,13.423077 18.5,13.010577 18.5,12.5 c 0,-0.510577 -0.4125,-0.923077 -0.923077,-0.923077 h -4.153846 z"
       id="path1"
       style="fill:#ffffff;fill-opacity:1;stroke-width:0.0288;stroke-dasharray:none" />
  </g>
</svg>
