<?xml version="1.0" encoding="UTF-8" standalone="no"?>
<!-- Created with Inkscape (http://www.inkscape.org/) -->

<svg
   width="65.000008"
   height="24.999977"
   viewBox="0 0 65.000007 24.999977"
   version="1.1"
   id="svg1"
   inkscape:version="1.3.2 (091e20e, 2023-11-25, custom)"
   sodipodi:docname="save_blue_25_65.svg"
   inkscape:export-filename="bg_blue_25.png"
   inkscape:export-xdpi="96"
   inkscape:export-ydpi="96"
   xmlns:inkscape="http://www.inkscape.org/namespaces/inkscape"
   xmlns:sodipodi="http://sodipodi.sourceforge.net/DTD/sodipodi-0.dtd"
   xmlns="http://www.w3.org/2000/svg"
   xmlns:svg="http://www.w3.org/2000/svg">
  <sodipodi:namedview
     id="namedview1"
     pagecolor="#ffffff"
     bordercolor="#000000"
     borderopacity="0.25"
     inkscape:showpageshadow="2"
     inkscape:pageopacity="0.0"
     inkscape:pagecheckerboard="0"
     inkscape:deskcolor="#d1d1d1"
     inkscape:document-units="px"
     inkscape:zoom="0.97820648"
     inkscape:cx="150.78616"
     inkscape:cy="191.67732"
     inkscape:window-width="1920"
     inkscape:window-height="1057"
     inkscape:window-x="3632"
     inkscape:window-y="194"
     inkscape:window-maximized="1"
     inkscape:current-layer="layer1" />
  <defs
     id="defs1">
    <rect
       x="-95.838661"
       y="-13.289628"
       width="36.290905"
       height="18.401024"
       id="rect2" />
  </defs>
  <g
     inkscape:label="Layer 1"
     inkscape:groupmode="layer"
     id="layer1"
     transform="translate(-1.001358e-5,-1.001358e-5)">
    <rect
       style="fill:#20a8d8;fill-opacity:1;stroke:#20a8d8;stroke-width:12.4858;stroke-linejoin:round;stroke-dasharray:none;stroke-opacity:1;paint-order:fill markers stroke"
       id="rect1"
       width="52.514206"
       height="12.514178"
       x="6.2429099"
       y="6.2429099" />
    <text
       xml:space="preserve"
       id="text1"
       style="font-style:normal;font-variant:normal;font-weight:normal;font-stretch:normal;font-size:13.3333px;font-family:'Segoe UI';-inkscape-font-specification:'Segoe UI';white-space:pre;shape-inside:url(#rect2);display:inline;fill:#ffffff;stroke:#ff5454;stroke-width:0.029;stroke-linejoin:round;paint-order:fill markers stroke"
       transform="translate(121.41664,18.785707)"><tspan
         x="-95.837891"
         y="-1.2790339"
         id="tspan1">Save</tspan></text>
    <path
       d="M 8.214286,6.5 C 7.26875,6.5 6.5,7.26875 6.5,8.214286 v 8.571428 C 6.5,17.73125 7.26875,18.5 8.214286,18.5 h 8.571428 C 17.73125,18.5 18.5,17.73125 18.5,16.785714 V 10.284821 C 18.5,9.829464 18.320536,9.392857 17.999107,9.071429 L 15.928571,7.000893 C 15.607143,6.679464 15.170536,6.5 14.715179,6.5 Z m 0,2.571429 c 0,-0.474108 0.383035,-0.857143 0.857143,-0.857143 h 5.142857 c 0.474107,0 0.857143,0.383035 0.857143,0.857143 v 1.714285 c 0,0.474107 -0.383036,0.857143 -0.857143,0.857143 H 9.071429 c -0.474108,0 -0.857143,-0.383036 -0.857143,-0.857143 z M 12.5,13.357143 a 1.7142857,1.7142857 0 1 1 0,3.428571 1.7142857,1.7142857 0 1 1 0,-3.428571 z"
       id="path1"
       style="fill:#ffffff;fill-opacity:1;stroke-width:0.0267856" />
  </g>
</svg>
